<?xml version="1.0" encoding="iso-8859-1"?>
<!-- Generator: Adobe Illustrator 18.1.1, SVG Export Plug-In . SVG Version: 6.00 Build 0)  -->
<svg xmlns="http://www.w3.org/2000/svg" xmlns:xlink="http://www.w3.org/1999/xlink" version="1.1" id="Capa_1" x="0px" y="0px" viewBox="0 0 155.139 155.139" style="enable-background:new 0 0 155.139 155.139;" xml:space="preserve" width="512px" height="512px">
<g>
	<g>
		<g>
			<path d="M42.186,38.844c-1.074-0.77-2.9-1.51-5.454-2.208v16.134c3.497-0.167,5.907-1.444,7.244-3.837     c0.692-1.229,1.038-2.649,1.038-4.266C45.014,42.12,44.077,40.175,42.186,38.844z" fill="#363636"/>
			<path d="M28.056,18.366c-1.146,1.533-1.712,3.139-1.712,4.815c0,2.023,0.668,3.604,2.023,4.75     c1.366,1.14,3.174,1.945,5.454,2.393V15.908C31.129,16.021,29.208,16.827,28.056,18.366z" fill="#363636"/>
			<path d="M35.246,0C15.77,0,0,15.782,0,35.252s15.782,35.252,35.246,35.252s35.246-15.782,35.246-35.252     S54.722,0,35.246,0z M45.223,54.77c-1.957,1.265-4.785,2.106-8.491,2.512v5.949H33.82v-5.949     c-5.937-0.388-9.983-2.494-12.107-6.319c-1.164-2.071-1.736-4.857-1.736-8.372h5.412c0.161,2.804,0.615,4.845,1.337,6.134     c1.283,2.309,3.634,3.604,7.095,3.89V35.903c-4.427-0.841-7.709-2.238-9.821-4.207c-2.112-1.963-3.168-4.684-3.168-8.157     c0-3.109,1.14-5.907,3.413-8.401c2.285-2.494,5.478-3.759,9.577-3.801V7.256h2.912v4.016c4.081,0.286,7.19,1.48,9.356,3.592     c2.184,2.112,3.33,4.899,3.425,8.366h-5.358c-0.143-1.551-0.561-2.888-1.259-4.016c-1.295-2.065-3.347-3.151-6.164-3.246v14.935     c4.75,1.325,7.96,2.572,9.66,3.735c2.763,1.921,4.135,4.768,4.135,8.527C50.545,48.606,48.767,52.473,45.223,54.77z" fill="#363636"/>
		</g>
		<path d="M35.246,84.64C15.764,84.64,0,100.428,0,119.886c0,19.47,15.782,35.252,35.246,35.252    s35.246-15.782,35.246-35.252C70.493,100.422,54.722,84.64,35.246,84.64z M48.642,142.859c-1.551,0.746-3.204,1.122-4.964,1.122    c-1.283,0-3.437-0.489-6.468-1.48c-3.019-0.979-5.4-1.468-7.16-1.468c-1.617,0-3.162,0.274-4.606,0.835    c-0.859,0.346-1.945,0.919-3.3,1.73l-3.168-4.553c2.399-1.689,4.35-3.562,5.836-5.597c1.474-2.041,2.208-4.26,2.208-6.653    c0-0.686-0.131-1.48-0.412-2.399c-0.179-0.585-0.459-1.366-0.871-2.375h-7.089v-3.335h5.03c0,0.107-0.358-0.561-1.074-2.005    c-0.722-1.444-1.193-2.494-1.432-3.156c-0.203-0.621-0.376-1.343-0.543-2.154c-0.149-0.829-0.221-1.712-0.221-2.643    c0-3.335,1.366-6.331,4.081-8.962c2.703-2.631,6.593-3.956,11.665-3.956c4.768,0,8.366,1.307,10.812,3.908    c2.44,2.613,3.711,6.301,3.783,11.063h-5.943c0-3.228-0.752-5.68-2.255-7.351c-1.51-1.677-3.801-2.518-6.88-2.518    c-2.983,0-5.257,0.782-6.79,2.357c-1.539,1.575-2.315,3.479-2.315,5.722c0,1.11,0.245,2.255,0.728,3.425    c0.471,1.175,1.492,3.276,3.061,6.289h10.514v3.341h-9.076c0.215,0.979,0.37,1.748,0.459,2.309    c0.101,0.555,0.137,1.128,0.137,1.724c0,2.136-0.638,4.254-1.909,6.337c-1.295,2.088-3.3,4.147-6.038,6.206    c1.474-0.746,2.924-1.349,4.356-1.778c1.432-0.436,2.834-0.65,4.195-0.65c1.539,0,3.586,0.37,6.104,1.134    c2.542,0.758,4.189,1.134,4.988,1.134c1.002,0,1.915-0.197,2.763-0.579c0.501-0.239,1.295-0.728,2.339-1.474l2.649,4.338    C50.659,141.677,49.591,142.387,48.642,142.859z" fill="#363636"/>
		<path d="M119.892,0c-19.476,0-35.246,15.782-35.246,35.252s15.782,35.252,35.246,35.252    s35.246-15.788,35.246-35.252C155.139,15.782,139.356,0,119.892,0z M133.801,53.905c-3.121,4.028-7.339,6.038-12.644,6.038    c-4.571,0-8.401-1.647-11.528-4.952c-2.93-3.109-4.827-7.441-5.645-12.996h-8.043l1.337-4.529h6.259    c-0.048-0.871-0.072-1.766-0.072-2.685c0-0.788,0.024-1.575,0.072-2.363h-7.59l1.343-4.535h6.76    c0.734-3.89,2.088-7.262,4.057-10.114c3.335-4.815,7.912-7.22,13.772-7.22c4.988,0,8.837,1.563,11.594,4.696    c2.769,3.127,4.29,6.683,4.6,10.663h-5.209c-0.579-3.019-1.748-5.418-3.52-7.184c-1.76-1.766-4.225-2.649-7.399-2.649    c-3.89,0-7.041,1.629-9.416,4.887c-1.325,1.79-2.261,4.099-2.846,6.928h17.805l-1.343,4.535h-17.107    c-0.078,1.086-0.101,2.238-0.101,3.449c0,0.549,0.012,1.086,0.024,1.599h18.521l-1.343,4.529h-16.701    c0.513,2.792,1.42,5.209,2.721,7.25c2.136,3.401,5.352,5.108,9.631,5.108c3.938,0,6.945-1.796,9.01-5.394    c1.098-1.897,1.886-4.386,2.423-7.471h5.209C137.954,46.422,136.421,50.563,133.801,53.905z" fill="#363636"/>
		<path d="M119.892,84.64c-19.476,0-35.246,15.788-35.246,35.246c0,19.476,15.782,35.252,35.246,35.252    s35.246-15.782,35.246-35.252C155.139,100.422,139.356,84.64,119.892,84.64z M137.035,111.085v4.624h-8.7l-4.404,7.482h11.981    v4.624h-12.805v16.164h-6.492v-16.164H104.17v-4.624h11.629l-4.404-7.482h-8.843v-4.624h6.128l-8.998-15.311h7.632l12.548,23.181    l12.596-23.181h7.65l-9.04,15.311H137.035z" fill="#363636"/>
	</g>
</g>
<g>
</g>
<g>
</g>
<g>
</g>
<g>
</g>
<g>
</g>
<g>
</g>
<g>
</g>
<g>
</g>
<g>
</g>
<g>
</g>
<g>
</g>
<g>
</g>
<g>
</g>
<g>
</g>
<g>
</g>
</svg>
